<svg aria-hidden="true" style="position: absolute; width: 0; height: 0; overflow: hidden;" version="1.1" xmlns="http://www.w3.org/2000/svg" xmlns:xlink="http://www.w3.org/1999/xlink">
<defs>
<symbol id="icon-money" viewBox="0 0 31 32">
<path fill="none" stroke="#fff" style="stroke: var(--color1, #fff)" stroke-linejoin="round" stroke-linecap="round" stroke-miterlimit="4" stroke-width="1.9394" d="M21.98 11.030c4.463 0 8.081-2.225 8.081-4.97s-3.618-4.97-8.081-4.97c-4.463 0-8.081 2.225-8.081 4.97s3.618 4.97 8.081 4.97z"></path>
<path fill="none" stroke="#fff" style="stroke: var(--color1, #fff)" stroke-linejoin="round" stroke-linecap="round" stroke-miterlimit="4" stroke-width="1.9394" d="M13.899 6.061v6.626c0 2.745 3.619 4.97 8.081 4.97s8.081-2.225 8.081-4.97v-6.626"></path>
<path fill="none" stroke="#fff" style="stroke: var(--color1, #fff)" stroke-linejoin="round" stroke-linecap="round" stroke-miterlimit="4" stroke-width="1.9394" d="M13.899 12.687v6.626c0 2.745 3.619 4.97 8.081 4.97s8.081-2.225 8.081-4.97v-6.626"></path>
<path fill="none" stroke="#fff" style="stroke: var(--color1, #fff)" stroke-linejoin="round" stroke-linecap="round" stroke-miterlimit="4" stroke-width="1.9394" d="M13.899 19.313v6.626c0 2.745 3.619 4.97 8.081 4.97s8.081-2.225 8.081-4.97v-6.626"></path>
<path fill="none" stroke="#fff" style="stroke: var(--color1, #fff)" stroke-linejoin="round" stroke-linecap="round" stroke-miterlimit="4" stroke-width="1.9394" d="M7.434 11.030h-4.040c-0.643 0-1.26 0.262-1.714 0.728s-0.71 1.098-0.71 1.757 0.255 1.291 0.71 1.757c0.455 0.466 1.071 0.728 1.714 0.728h1.616c0.643 0 1.26 0.262 1.714 0.728s0.71 1.098 0.71 1.757-0.255 1.291-0.71 1.757c-0.455 0.466-1.071 0.728-1.714 0.728h-4.040"></path>
<path fill="none" stroke="#fff" style="stroke: var(--color1, #fff)" stroke-linejoin="round" stroke-linecap="round" stroke-miterlimit="4" stroke-width="1.9394" d="M4.202 9.374v1.657M4.202 20.97v0z"></path>
</symbol>
<symbol id="icon-360" viewBox="0 0 32 32">
<path fill="#fff" style="fill: var(--color1, #fff)" d="M9.6 11.733l0.853 0.64c0.119-0.158 0.191-0.347 0.209-0.544s-0.020-0.396-0.108-0.573c-0.089-0.177-0.225-0.326-0.393-0.43s-0.363-0.159-0.561-0.159v1.067zM6.4 16l-0.853-0.64c-0.119 0.158-0.191 0.347-0.209 0.544s0.020 0.396 0.108 0.573c0.089 0.177 0.225 0.326 0.393 0.43s0.363 0.159 0.561 0.159v-1.067zM27.17 6.089v0zM4.267 12.8h5.333v-2.133h-5.333v2.133zM8.747 11.093l-3.2 4.267 1.707 1.28 3.2-4.267-1.707-1.28zM6.4 17.067h1.067v-2.133h-1.067v2.133zM7.467 19.2h-3.2v2.133h3.2v-2.133zM8.533 18.133c0 0.283-0.112 0.554-0.312 0.754s-0.471 0.312-0.754 0.312v2.133c0.849 0 1.663-0.337 2.263-0.937s0.937-1.414 0.937-2.263h-2.133zM7.467 17.067c0.283 0 0.554 0.112 0.754 0.312s0.312 0.471 0.312 0.754h2.133c0-0.849-0.337-1.663-0.937-2.263s-1.414-0.937-2.263-0.937v2.133zM17.067 10.667h-1.067v2.133h1.067v-2.133zM12.8 13.867v2.133h2.133v-2.133h-2.133zM12.8 16v2.133h2.133v-2.133h-2.133zM16 14.933h-2.133v2.133h2.133v-2.133zM19.2 18.133c0-0.849-0.337-1.663-0.937-2.263s-1.414-0.937-2.263-0.937v2.133c0.283 0 0.554 0.112 0.754 0.312s0.312 0.471 0.312 0.754h2.133zM16 21.333c0.849 0 1.663-0.337 2.263-0.937s0.937-1.414 0.937-2.263h-2.133c0 0.283-0.112 0.554-0.312 0.754s-0.471 0.312-0.754 0.312v2.133zM16 19.2c-0.283 0-0.554-0.112-0.754-0.312s-0.312-0.471-0.312-0.754h-2.133c0 0.849 0.337 1.663 0.937 2.263s1.414 0.937 2.263 0.937v-2.133zM16 10.667c-0.849 0-1.663 0.337-2.263 0.937s-0.937 1.414-0.937 2.263h2.133c0-0.283 0.112-0.554 0.312-0.754s0.471-0.312 0.754-0.312v-2.133zM25.6 13.867v4.267h2.133v-4.267h-2.133zM23.467 18.133v-4.267h-2.133v4.267h2.133zM24.533 19.2c-0.283 0-0.554-0.112-0.754-0.312s-0.312-0.471-0.312-0.754h-2.133c0 0.849 0.337 1.663 0.937 2.263s1.414 0.937 2.263 0.937v-2.133zM25.6 18.133c0 0.283-0.112 0.554-0.312 0.754s-0.471 0.312-0.754 0.312v2.133c0.849 0 1.663-0.337 2.263-0.937s0.937-1.414 0.937-2.263h-2.133zM24.533 12.8c0.283 0 0.554 0.112 0.754 0.312s0.312 0.471 0.312 0.754h2.133c0-0.849-0.337-1.663-0.937-2.263s-1.414-0.937-2.263-0.937v2.133zM24.533 10.667c-0.849 0-1.663 0.337-2.263 0.937s-0.937 1.414-0.937 2.263h2.133c0-0.283 0.112-0.554 0.312-0.754s0.471-0.312 0.754-0.312v-2.133zM16 29.867c-3.678 0-7.205-1.461-9.805-4.061s-4.061-6.128-4.061-9.805h-2.133c0 4.243 1.686 8.313 4.686 11.314s7.070 4.686 11.314 4.686v-2.133zM29.867 16c0 1.821-0.359 3.624-1.056 5.307s-1.718 3.211-3.006 4.499c-1.288 1.288-2.816 2.309-4.499 3.006s-3.486 1.056-5.307 1.056v2.133c4.243 0 8.313-1.686 11.314-4.686s4.686-7.070 4.686-11.314h-2.133zM16 0c-4.243 0-8.313 1.686-11.314 4.686s-4.686 7.070-4.686 11.314h2.133c0-3.678 1.461-7.205 4.061-9.805s6.128-4.061 9.805-4.061v-2.133zM28.8 6.4c0.283 0 0.554 0.112 0.754 0.312s0.312 0.471 0.312 0.754h2.133c0-0.849-0.337-1.663-0.937-2.263s-1.414-0.937-2.263-0.937v2.133zM28.8 8.533c-0.283 0-0.554-0.112-0.754-0.312s-0.312-0.471-0.312-0.754h-2.133c0 0.849 0.337 1.663 0.937 2.263s1.414 0.937 2.263 0.937v-2.133zM27.733 7.467c0-0.262 0.094-0.501 0.252-0.689l-1.628-1.378c-0.472 0.557-0.757 1.28-0.757 2.067h2.133zM27.985 6.778c0.1-0.119 0.225-0.214 0.366-0.279s0.294-0.099 0.449-0.098v-2.133c-0.981 0-1.858 0.442-2.443 1.133l1.628 1.378zM16 2.133c4.126 0 7.831 1.801 10.372 4.663l1.596-1.417c-1.5-1.694-3.342-3.049-5.406-3.977s-4.3-1.406-6.562-1.404v2.133zM28.489 9.963c0.883 1.826 1.378 3.872 1.378 6.037h2.133c0-2.496-0.572-4.858-1.591-6.965l-1.92 0.93v-0.002zM29.867 7.467c0 0.226-0.071 0.447-0.205 0.63s-0.322 0.319-0.537 0.387l0.649 2.031c0.647-0.206 1.211-0.613 1.611-1.161s0.616-1.209 0.616-1.888h-2.133zM29.124 8.484c-0.105 0.033-0.214 0.050-0.324 0.049v2.133c0.33 0.001 0.658-0.050 0.973-0.149l-0.649-2.033z"></path>
</symbol>
<symbol id="icon-vr" viewBox="0 0 44 32">
<path fill="none" stroke="#fff" style="stroke: var(--color1, #fff)" stroke-linejoin="round" stroke-linecap="round" stroke-miterlimit="4" stroke-width="2.4615" d="M1.641 11.897c0-1.088 0.432-2.132 1.202-2.901s1.813-1.202 2.901-1.202h32.82c1.088 0 2.132 0.432 2.901 1.202s1.202 1.813 1.202 2.901v14.359c0 1.088-0.432 2.132-1.202 2.901s-1.813 1.202-2.901 1.202h-7.934c-0.708 0-1.405-0.183-2.021-0.533s-1.132-0.852-1.497-1.459l-3.2-5.333c-0.182-0.303-0.44-0.554-0.748-0.729s-0.656-0.266-1.010-0.266-0.702 0.092-1.010 0.266c-0.308 0.174-0.566 0.425-0.748 0.729l-3.2 5.333c-0.365 0.608-0.88 1.11-1.497 1.459s-1.313 0.533-2.021 0.533h-7.934c-1.088 0-2.132-0.432-2.901-1.202s-1.202-1.813-1.202-2.901v-14.359z"></path>
<path fill="none" stroke="#fff" style="stroke: var(--color1, #fff)" stroke-linejoin="round" stroke-linecap="round" stroke-miterlimit="4" stroke-width="2.4615" d="M5.36 5.294c0.749-1.123 1.764-2.045 2.954-2.682s2.52-0.971 3.87-0.971h19.934c1.351 0 2.681 0.333 3.871 0.971s2.206 1.559 2.955 2.683l1.67 2.5h-36.923l1.668-2.501z"></path>
</symbol>
<symbol id="icon-controller" viewBox="0 0 38 32">
<path fill="#fff" style="fill: var(--color1, #fff)" d="M35.584 31.086c-1.755 0.878-4.096 0.293-5.266-1.463l-3.218-4.096h-15.799l-3.218 4.096c-1.463 2.048-4.096 2.341-6.144 0.878-1.463-1.17-2.048-2.926-1.755-4.389l2.048-10.825c0.585-3.511 3.803-6.144 7.314-6.144h8.192v-4.389c0-2.341 1.755-4.389 4.096-4.389h9.070c0.878 0 1.463 0.585 1.463 1.463s-0.585 1.463-1.463 1.463h-8.777c-0.878 0-1.463 0.585-1.463 1.17v4.681h8.192c3.511 0 6.729 2.633 7.314 6.144l2.048 10.825c0.293 2.048-0.585 4.096-2.633 4.974zM14.811 16.457c0-2.341-2.048-4.389-4.389-4.389s-4.389 2.048-4.389 4.389c0 2.341 2.048 4.389 4.389 4.389s4.389-2.048 4.389-4.389zM32.366 16.457c0-0.878-0.585-1.463-1.463-1.463h-1.463v-1.463c0-0.878-0.585-1.463-1.463-1.463s-1.463 0.585-1.463 1.463v1.463h-1.463c-0.878 0-1.463 0.585-1.463 1.463s0.585 1.463 1.463 1.463h1.463v1.463c0 0.878 0.585 1.463 1.463 1.463s1.463-0.585 1.463-1.463v-1.463h1.463c0.878 0 1.463-0.585 1.463-1.463z"></path>
</symbol>
<symbol id="icon-logo" viewBox="0 0 32 32">
<path fill="none" stroke="#fff" style="stroke: var(--color1, #fff)" stroke-linejoin="miter" stroke-linecap="butt" stroke-miterlimit="4" stroke-width="2.2326" d="M21.953 16c0 4.3-0.772 8.14-1.975 10.863-0.602 1.363-1.29 2.396-1.998 3.074-0.702 0.672-1.369 0.948-1.98 0.948s-1.278-0.275-1.98-0.948c-0.708-0.677-1.396-1.711-1.998-3.074-1.203-2.723-1.975-6.562-1.975-10.863s0.772-8.14 1.975-10.863c0.602-1.363 1.29-2.396 1.998-3.074 0.702-0.672 1.369-0.947 1.98-0.947s1.278 0.275 1.98 0.947c0.708 0.677 1.396 1.711 1.998 3.074 1.203 2.723 1.975 6.562 1.975 10.863z"></path>
<path fill="none" stroke="#9ba4ed" style="stroke: var(--color2, #9ba4ed)" stroke-linejoin="miter" stroke-linecap="butt" stroke-miterlimit="4" stroke-width="2.2326" d="M16 21.953c-4.3 0-8.14-0.772-10.863-1.975-1.363-0.602-2.396-1.29-3.074-1.998-0.672-0.702-0.947-1.369-0.947-1.98s0.275-1.278 0.947-1.98c0.677-0.708 1.711-1.396 3.074-1.998 2.723-1.203 6.562-1.975 10.863-1.975s8.14 0.772 10.863 1.975c1.363 0.602 2.396 1.29 3.074 1.998 0.672 0.702 0.948 1.369 0.948 1.98s-0.275 1.278-0.948 1.98c-0.677 0.708-1.711 1.396-3.074 1.998-2.723 1.203-6.562 1.975-10.863 1.975z"></path>
</symbol>
</defs>
</svg>

